<?xml version="1.0" standalone="no"?>
<!DOCTYPE svg PUBLIC "-//W3C//DTD SVG 20010904//EN"
 "http://www.w3.org/TR/2001/REC-SVG-20010904/DTD/svg10.dtd">
<svg version="1.0" xmlns="http://www.w3.org/2000/svg"
 width="1920.000000pt" height="1920.000000pt" viewBox="0 0 1920.000000 1920.000000"
 preserveAspectRatio="xMidYMid meet">
<metadata>
Created by potrace 1.14, written by Peter Selinger 2001-2017
</metadata>
<g transform="translate(0.000000,1920.000000) scale(0.100000,-0.100000)"
fill="#000000" stroke="none">
<path d="M2036 17605 c-2 -5 1 -20 5 -32 5 -13 5 -23 1 -23 -8 0 -8 -147 0
-156 3 -3 3 -18 -1 -32 -5 -23 -6 -240 -1 -322 1 -14 -1 -37 -3 -52 -2 -16 1
-32 7 -36 6 -5 408 -8 893 -8 l881 1 4 -27 c3 -15 1 -33 -3 -40 -4 -7 -5 -17
-1 -23 11 -17 11 -35 1 -35 -6 0 -7 -5 -3 -12 7 -10 9 -66 4 -85 -1 -5 -1 -12
0 -18 5 -26 3 -103 -4 -113 -4 -7 -4 -12 1 -12 10 0 9 -52 -1 -68 -4 -7 -4
-12 1 -12 10 0 9 -52 -1 -68 -4 -7 -4 -12 1 -12 10 0 9 -52 -1 -68 -4 -7 -4
-12 1 -12 10 0 9 -52 -1 -68 -4 -7 -4 -12 1 -12 10 0 9 -52 -1 -68 -4 -7 -4
-12 1 -12 10 0 9 -52 -1 -68 -4 -7 -4 -12 1 -12 10 0 9 -52 -1 -68 -4 -7 -4
-12 1 -12 10 0 9 -52 -1 -68 -4 -7 -4 -12 1 -12 10 0 9 -52 -1 -68 -4 -7 -4
-12 1 -12 10 0 9 -52 -1 -68 -4 -7 -4 -12 1 -12 10 0 9 -52 -1 -68 -4 -7 -4
-12 1 -12 10 0 9 -52 -1 -68 -4 -7 -4 -12 1 -12 10 0 9 -52 -1 -68 -4 -7 -4
-12 1 -12 10 0 9 -52 -1 -68 -4 -7 -4 -12 1 -12 10 0 9 -52 -1 -68 -4 -7 -3
-12 1 -12 7 0 9 -44 3 -60 -1 -3 -1 -9 0 -15 2 -13 2 -87 0 -100 -1 -5 -1 -14
0 -20 5 -23 2 -114 -4 -124 -4 -6 -3 -11 2 -11 7 0 8 -71 1 -90 -1 -3 0 -9 1
-15 2 -13 2 -87 0 -100 -1 -5 -1 -14 0 -20 2 -13 2 -87 0 -100 -1 -5 -1 -14 0
-20 5 -26 2 -123 -4 -134 -4 -6 -4 -11 1 -11 7 0 9 -64 3 -80 -2 -3 -1 -9 0
-15 2 -13 2 -87 0 -100 -1 -5 -1 -14 0 -20 2 -13 2 -87 0 -100 -1 -5 -1 -14 0
-20 5 -23 2 -114 -4 -124 -4 -6 -3 -11 2 -11 7 0 8 -71 1 -90 -1 -3 0 -9 1
-15 2 -13 2 -87 0 -100 -1 -5 -1 -14 0 -20 2 -13 2 -87 0 -100 -1 -5 -1 -14 0
-20 5 -26 2 -123 -4 -134 -4 -6 -4 -11 1 -11 7 0 9 -64 3 -80 -2 -3 -1 -9 0
-15 2 -13 2 -87 0 -100 -1 -5 -1 -14 0 -20 2 -13 2 -87 0 -100 -1 -5 -1 -14 0
-20 5 -23 2 -114 -4 -124 -4 -6 -3 -11 2 -11 7 0 8 -71 1 -90 -1 -3 0 -9 1
-15 2 -13 2 -87 0 -100 -1 -5 -1 -14 0 -20 5 -26 2 -144 -4 -154 -4 -6 -4 -11
1 -11 10 0 9 -52 -1 -68 -4 -7 -4 -12 1 -12 10 0 9 -52 -1 -68 -4 -7 -4 -12 1
-12 10 0 9 -52 -1 -68 -4 -7 -4 -12 1 -12 10 0 9 -52 -1 -68 -4 -7 -4 -12 1
-12 10 0 9 -52 -1 -68 -4 -7 -4 -12 1 -12 10 0 9 -52 -1 -68 -4 -7 -4 -12 1
-12 10 0 9 -52 -1 -68 -4 -7 -4 -12 1 -12 10 0 9 -52 -1 -68 -4 -7 -4 -12 1
-12 10 0 9 -52 -1 -68 -4 -7 -3 -12 3 -12 6 0 7 -8 2 -22 l-8 -21 -882 0
c-798 0 -883 -2 -889 -16 -6 -14 -7 -121 -2 -201 1 -14 -1 -38 -3 -55 -3 -16
-1 -40 4 -52 5 -13 5 -23 1 -23 -4 0 -7 -71 -6 -158 l0 -157 132 -5 c73 -3
132 -3 132 0 0 5 263 3 413 -2 37 -2 67 -1 67 2 0 5 263 3 413 -2 37 -2 67 -1
67 2 0 5 263 3 413 -2 37 -2 67 -1 67 2 0 5 263 3 413 -2 37 -2 67 -1 67 2 0
5 263 3 413 -2 37 -2 67 -1 67 2 0 3 373 4 829 3 l829 -3 5 27 c3 15 2 36 -3
47 -4 12 -4 31 1 44 5 12 5 22 -1 22 -5 0 -5 12 0 29 4 15 4 34 0 42 -5 7 -6
17 -3 22 8 13 10 108 2 113 -4 2 -4 18 1 35 5 18 6 39 1 48 -5 9 -7 25 -4 36
7 39 9 117 2 121 -4 2 -4 17 1 34 6 19 4 32 -3 38 -7 6 -361 10 -887 10 -481
0 -881 1 -888 1 -10 1 -13 16 -12 54 1 28 1 57 0 62 -1 6 -1 28 -1 50 2 140 1
176 -4 185 -3 6 -1 10 6 10 8 0 9 3 3 9 -5 6 -7 55 -4 116 3 59 3 109 1 111
-3 2 -4 21 -3 42 2 88 4 188 2 197 -4 21 0 138 5 145 3 5 1 11 -4 15 -7 3 -7
15 -1 29 5 13 6 26 3 29 -7 8 -6 143 2 156 3 6 2 11 -3 11 -5 0 -6 20 -2 45 4
25 3 48 -1 51 -5 2 -4 16 1 29 5 13 6 26 2 29 -4 2 -5 43 -2 91 3 48 3 89 1
91 -3 2 -4 23 -3 47 4 102 2 178 -3 187 -3 6 -1 10 6 10 8 0 9 3 3 9 -5 6 -7
55 -4 116 3 59 3 109 1 111 -3 2 -4 23 -3 47 4 102 2 178 -3 187 -3 6 -1 10 6
10 8 0 9 3 3 9 -5 6 -7 55 -4 116 3 59 3 109 1 111 -3 2 -4 21 -3 42 2 88 4
188 2 197 -4 21 0 138 5 145 3 5 1 11 -4 15 -7 3 -7 15 -1 29 5 13 6 26 3 29
-7 8 -6 143 2 156 3 6 2 11 -3 11 -5 0 -6 20 -2 45 4 25 3 48 -1 51 -5 2 -4
16 1 29 5 13 6 26 2 29 -4 2 -5 43 -2 91 3 48 3 89 1 91 -3 2 -4 23 -3 47 4
102 2 178 -3 187 -3 6 -1 10 6 10 8 0 9 3 4 9 -6 6 -8 55 -5 116 3 59 3 109 1
111 -3 2 -4 23 -3 47 4 102 2 178 -3 187 -3 6 -1 10 6 10 8 0 9 3 3 9 -5 6 -7
55 -4 116 3 59 3 109 1 111 -3 2 -4 21 -3 42 2 88 4 188 2 197 -4 21 0 138 5
145 3 5 1 11 -4 15 -7 3 -7 15 -1 30 5 13 6 27 1 29 -9 6 -2 65 8 67 3 1 403
2 888 3 485 0 884 3 887 6 10 10 15 60 6 65 -5 3 -5 19 0 36 5 18 6 39 1 48
-5 9 -7 25 -4 36 7 39 9 117 2 121 -4 2 -4 18 1 35 5 18 6 39 1 48 -5 9 -7 25
-4 36 7 39 9 117 2 121 -4 2 -4 18 1 35 5 18 6 39 1 48 -5 9 -11 20 -13 25 -4
14 -4307 14 -4312 1z"/>
<path d="M9900 12861 c-14 -3 -53 -6 -87 -6 -35 0 -63 -3 -63 -6 0 -3 -12 -6
-27 -6 -43 -1 -155 -16 -203 -28 -14 -3 -39 -7 -56 -9 -16 -1 -34 -5 -40 -8
-5 -3 -27 -9 -49 -13 -22 -5 -42 -9 -45 -10 -3 -1 -25 -7 -50 -15 -58 -17 -72
-21 -87 -22 -7 -1 -13 -5 -13 -10 0 -5 -4 -7 -9 -4 -5 3 -22 -1 -38 -9 -16 -8
-39 -16 -51 -18 -12 -2 -27 -8 -33 -14 -6 -6 -18 -9 -25 -6 -8 3 -14 1 -14 -5
0 -8 -20 -17 -60 -27 -20 -4 -169 -80 -184 -94 -10 -9 -20 -15 -22 -13 -6 4
-128 -70 -132 -80 -2 -4 -8 -8 -13 -8 -9 0 -34 -17 -134 -93 -110 -83 -325
-299 -407 -409 -15 -20 -33 -42 -40 -50 -33 -34 -169 -253 -217 -348 -12 -25
-26 -52 -31 -60 -46 -74 -207 -477 -225 -560 -5 -25 -47 -184 -52 -200 -3 -8
-7 -25 -9 -37 -1 -12 -12 -68 -23 -125 -22 -112 -26 -135 -37 -218 -4 -30 -8
-66 -10 -80 -2 -14 -6 -54 -9 -90 -3 -36 -8 -79 -10 -96 -22 -174 -22 -734 0
-989 9 -111 18 -202 20 -215 2 -8 6 -44 10 -80 4 -36 9 -74 11 -85 2 -11 7
-40 10 -65 9 -66 62 -324 86 -410 88 -328 232 -665 379 -890 35 -52 65 -97 69
-100 3 -3 17 -21 30 -40 62 -89 221 -258 321 -340 30 -25 56 -48 57 -53 2 -4
8 -5 13 -1 5 3 9 1 9 -4 0 -10 163 -122 178 -122 6 0 12 -4 14 -8 5 -12 158
-94 158 -85 0 5 4 4 8 -2 10 -14 117 -63 117 -54 0 1 11 -4 25 -11 25 -14 44
-20 68 -22 6 -1 12 -5 12 -8 0 -4 15 -11 33 -15 38 -9 33 -8 77 -23 19 -6 46
-14 60 -16 14 -3 25 -5 25 -6 0 -2 30 -9 55 -14 8 -2 23 -6 32 -10 9 -4 22 -5
28 -1 5 3 10 2 10 -2 0 -5 8 -9 18 -10 9 0 35 -4 57 -7 80 -14 101 -17 145
-22 25 -3 61 -7 80 -10 145 -20 625 -20 725 0 11 2 48 7 82 11 58 7 77 9 143
19 50 8 119 22 260 53 51 10 55 12 58 13 1 2 7 4 12 5 6 1 11 4 13 5 1 1 13 3
27 5 14 1 39 8 55 15 17 6 41 14 55 17 13 2 29 8 36 14 6 5 14 6 17 2 4 -3 7
-1 7 6 0 7 4 10 10 6 5 -3 17 -1 27 4 10 5 56 24 103 42 46 18 105 41 130 53
25 11 48 19 53 18 4 -1 7 2 7 7 0 10 39 27 53 23 4 -1 7 2 7 7 0 5 19 19 43
31 81 41 97 51 97 61 0 5 6 9 13 9 8 0 23 8 34 18 19 17 20 34 20 1399 l0
1381 -21 4 c-11 2 -63 3 -113 3 -57 0 -93 3 -93 10 0 7 -3 7 -8 0 -4 -7 -65
-11 -157 -11 -92 0 -153 4 -157 11 -5 6 -8 6 -8 0 0 -12 -609 -14 -627 -2 -6
4 -14 3 -17 -1 -7 -12 -227 -10 -245 2 -9 6 -12 5 -8 -1 8 -13 -212 -12 -232
1 -9 6 -12 5 -8 -1 8 -13 -212 -12 -232 1 -10 6 -12 6 -7 -2 4 -7 2 -12 -3
-12 -8 0 -11 -95 -11 -299 l0 -300 603 0 c331 0 625 0 652 -1 l51 0 -1 -875 0
-876 -42 -23 c-23 -13 -44 -21 -47 -18 -3 3 -6 1 -6 -5 0 -10 -22 -20 -65 -29
-10 -3 -22 -10 -27 -16 -4 -7 -10 -9 -14 -5 -4 4 -12 3 -18 -2 -15 -12 -169
-62 -174 -56 -3 2 -12 0 -22 -5 -9 -5 -30 -12 -46 -15 -16 -2 -39 -7 -50 -9
-222 -45 -583 -54 -809 -21 -58 9 -80 13 -80 15 0 1 -11 3 -25 5 -29 3 -77 13
-102 21 -10 3 -30 8 -45 10 -15 3 -30 10 -34 15 -3 6 -8 9 -10 7 -7 -6 -109
26 -109 34 0 5 -6 8 -12 6 -7 -1 -22 3 -33 9 -11 6 -24 12 -30 13 -25 6 -55
24 -55 33 0 6 -3 7 -6 4 -6 -6 -132 57 -144 72 -3 3 -16 12 -30 19 -14 7 -39
25 -56 40 -18 15 -42 34 -55 42 -32 21 -197 187 -240 240 -101 127 -264 415
-285 505 -1 6 -12 36 -24 67 -40 107 -84 269 -106 388 -2 14 -9 45 -14 70 -17
78 -34 194 -45 295 -4 33 -9 76 -11 95 -25 206 -25 962 1 1110 2 14 6 50 9 80
4 30 8 66 11 79 2 14 7 47 10 75 3 28 8 58 10 66 2 8 7 31 10 50 25 153 125
471 199 633 18 40 33 75 34 79 5 17 106 189 155 263 80 119 239 288 356 377
36 28 69 56 73 62 4 6 8 7 8 3 0 -4 20 6 44 22 37 26 100 58 241 123 12 5 27
10 35 12 8 2 24 6 35 10 52 20 142 47 170 52 6 1 12 3 15 4 8 3 66 14 133 26
17 3 43 7 57 10 133 23 482 23 745 -1 39 -4 86 -8 105 -10 19 -1 35 -4 35 -5
0 -1 14 -4 30 -6 17 -2 46 -7 65 -11 19 -3 40 -7 45 -7 6 -1 12 -183 15 -516
l5 -515 330 0 330 0 5 768 c3 507 2 771 -5 776 -5 5 -35 17 -65 27 -30 10 -57
21 -60 24 -3 3 -9 5 -15 6 -26 1 -86 17 -90 24 -2 4 -16 6 -30 5 -14 -2 -25 1
-25 6 0 5 -13 9 -28 9 -16 0 -32 3 -36 7 -3 4 -14 8 -24 9 -42 6 -86 13 -115
20 -18 4 -39 8 -47 9 -8 0 -19 3 -25 6 -5 4 -22 6 -37 5 -16 -1 -28 1 -28 4 0
3 -17 6 -37 7 -21 1 -56 5 -78 8 -51 8 -123 15 -200 18 -34 2 -66 6 -72 10 -7
4 -14 3 -17 -2 -4 -5 -18 -6 -34 -2 -15 4 -53 7 -84 6 -32 -1 -58 2 -58 7 0 4
-11 3 -24 -2 -15 -5 -27 -5 -35 3 -8 8 -11 8 -11 -2 0 -7 -5 -9 -10 -6 -14 8
-248 10 -256 2 -4 -4 -12 -3 -18 2 -6 4 -22 5 -36 2z"/>
<path d="M13539 9322 c-3 -106 -2 -140 5 -150 4 -7 4 -12 -1 -12 -9 0 -8 -83
1 -99 4 -5 1 -13 -5 -17 -8 -4 -7 -9 2 -15 8 -5 10 -9 4 -9 -11 0 -11 -132 0
-149 3 -6 3 -11 -2 -11 -10 0 -8 -294 2 -309 3 -6 3 -11 -2 -11 -10 0 -9 -473
1 -489 4 -6 4 -11 -1 -11 -9 0 -8 -83 1 -99 4 -5 1 -13 -5 -17 -8 -4 -7 -9 2
-15 8 -5 10 -9 4 -9 -11 0 -12 -310 -1 -329 4 -6 4 -11 -1 -11 -9 0 -8 -83 1
-99 4 -5 1 -13 -5 -17 -8 -4 -7 -9 2 -15 8 -5 10 -9 4 -9 -11 0 -12 -310 -1
-329 4 -6 4 -11 -1 -11 -9 0 -8 -113 1 -129 4 -6 4 -11 -1 -11 -10 0 -8 -294
2 -309 3 -6 3 -11 -2 -11 -10 0 -8 -294 2 -309 3 -6 3 -11 -2 -11 -10 0 -8
-294 2 -309 3 -6 3 -11 -2 -11 -10 0 -9 -473 1 -489 4 -6 4 -11 -1 -11 -9 0
-8 -83 1 -99 4 -5 1 -13 -5 -17 -8 -4 -7 -9 2 -15 8 -5 10 -9 4 -9 -11 0 -12
-310 -1 -329 4 -6 4 -11 -1 -11 -9 0 -8 -83 1 -99 4 -5 1 -13 -5 -17 -8 -4 -7
-9 2 -15 8 -5 10 -9 4 -9 -11 0 -12 -310 -1 -329 4 -6 4 -11 -1 -11 -9 0 -8
-113 1 -129 4 -6 4 -11 -1 -11 -10 0 -8 -294 2 -309 3 -6 3 -11 -2 -11 -10 0
-9 -473 1 -489 4 -6 4 -11 -1 -11 -9 0 -8 -83 1 -99 4 -5 1 -13 -5 -17 -8 -4
-7 -9 2 -15 8 -5 10 -9 4 -9 -11 0 -12 -211 -1 -229 4 -6 4 -11 -1 -11 -4 0
-8 -29 -8 -65 0 -51 3 -65 15 -66 76 -6 3943 -2 3947 4 9 14 9 98 1 103 -5 3
-5 10 -2 16 10 15 11 139 1 145 -4 2 -4 9 -1 15 9 14 9 451 1 465 -4 6 -4 13
0 16 8 9 9 457 1 457 -4 0 -5 7 -2 15 9 22 10 225 2 225 -4 0 -5 7 -2 15 9 22
11 145 2 145 -4 0 -5 7 -2 15 9 23 10 226 1 232 -4 2 -4 9 0 15 7 13 8 336 1
344 -8 7 -650 6 -657 -2 -3 -3 -7 -348 -7 -767 -1 -419 -2 -769 -3 -778 -1
-15 -103 -17 -1271 -17 -951 0 -1270 3 -1271 11 0 7 -1 1275 -1 2820 l-1 2807
-373 0 -374 -1 -1 -27z"/>
</g>
</svg>
